<?xml version="1.0" standalone="no"?>
<!DOCTYPE svg PUBLIC "-//W3C//DTD SVG 20010904//EN"
 "http://www.w3.org/TR/2001/REC-SVG-20010904/DTD/svg10.dtd">
<svg version="1.0" xmlns="http://www.w3.org/2000/svg"
 width="300.000000pt" height="300.000000pt" viewBox="0 0 300.000000 300.000000"
 preserveAspectRatio="xMidYMid meet">

<g transform="translate(0.000000,300.000000) scale(0.100000,-0.100000)"
fill="#DA291C" stroke="none">
<path d="M1394 2831 c-50 -12 -115 -53 -145 -91 -15 -19 -120 -219 -234 -445
-114 -225 -277 -546 -361 -712 -85 -166 -154 -304 -154 -307 0 -3 119 -6 263
-6 l264 0 182 363 c101 199 194 372 207 385 32 28 84 29 109 2 11 -12 57 -96
104 -188 l86 -167 110 0 110 0 77 146 77 146 -198 389 c-133 260 -210 401
-234 426 -56 57 -166 82 -263 59z"/>
<path d="M2193 1862 c-12 -7 -183 -311 -183 -324 0 -5 137 -8 304 -8 l305 0
85 164 c47 90 86 167 86 170 0 9 -583 7 -597 -2z"/>
<path d="M1341 1322 c-56 -104 -101 -194 -101 -200 0 -9 67 -12 259 -12 l259
0 101 190 c56 104 101 194 101 200 0 6 -93 10 -259 10 l-260 0 -100 -188z"/>
<path d="M2002 1313 c-54 -96 -102 -189 -102 -198 0 -3 119 -5 264 -5 l264 0
70 128 c39 70 74 135 78 145 6 16 -11 17 -259 17 l-266 0 -49 -87z"/>
<path d="M409 1068 c-51 -83 -122 -239 -126 -280 -3 -27 1 -68 11 -103 21 -71
89 -144 152 -163 31 -9 194 -12 623 -12 319 0 581 2 581 5 0 3 -43 89 -96 190
l-97 185 -313 0 c-173 0 -314 3 -314 7 0 3 23 48 50 100 28 51 50 96 50 98 0
3 -113 5 -250 5 l-250 0 -21 -32z"/>
<path d="M1595 928 c8 -18 59 -118 112 -223 l98 -190 84 -3 c98 -3 165 15 204
56 14 15 44 60 67 101 86 153 150 272 150 281 0 6 -137 10 -364 10 l-365 0 14
-32z"/>
</g>
</svg>
